<svg xmlns="http://www.w3.org/2000/svg" width="800" height="450" viewBox="0 0 800 450">
  <defs>
    <linearGradient id="bg" x1="0" y1="0" x2="0" y2="1">
      <stop offset="0%" stop-color="#F5F0E8"/>
      <stop offset="100%" stop-color="#E0D3BE"/>
    </linearGradient>
  </defs>
  <rect width="800" height="450" fill="url(#bg)"/>
  <g opacity="0.15">
    <path d="M0 370 Q100 340 200 360 Q300 380 400 350 Q500 320 600 350 Q700 380 800 340" fill="none" stroke="#D4A843" stroke-width="2"/>
  </g>
  <g transform="translate(400,180)">
    <text x="0" y="0" text-anchor="middle" fill="#C41A1A" font-size="48" font-weight="bold" font-family="serif">明代</text>
    <text x="0" y="50" text-anchor="middle" fill="#525252" font-size="20" font-family="serif">秦腔正式成型</text>
    <line x1="-60" y1="65" x2="60" y2="65" stroke="#D4A843" stroke-width="2"/>
    <text x="0" y="90" text-anchor="middle" fill="#D4A843" font-size="14" font-family="serif">梆子腔起 · 高亢激昂</text>
  </g>
  <g opacity="0.1" transform="translate(130,280)">
    <rect x="0" y="0" width="12" height="80" rx="3" fill="#8B4513"/>
    <circle cx="6" cy="8" r="8" fill="#C41A1A"/>
  </g>
  <g opacity="0.08" transform="translate(580,260)">
    <rect x="0" y="0" width="100" height="70" fill="#1A1A1A" rx="2"/>
    <path d="M15 15 L50 15 L50 35 L15 35 Z" fill="#C41A1A" opacity="0.5"/>
    <path d="M55 15 L85 25 L55 35 Z" fill="#D4A843" opacity="0.5"/>
  </g>
</svg>
