<svg xmlns="http://www.w3.org/2000/svg" width="640" height="360" viewBox="0 0 640 360">
  <defs>
    <linearGradient id="bg" x1="0" y1="0" x2="1" y2="1">
      <stop offset="0%" stop-color="#7F1D1D"/>
      <stop offset="100%" stop-color="#1A1A1A"/>
    </linearGradient>
  </defs>
  <rect width="640" height="360" fill="url(#bg)"/>
  <g opacity="0.15">
    <path d="M50 300 Q100 260 150 280 Q200 300 250 260 Q300 220 350 250 Q400 280 450 240" fill="none" stroke="#D4A843" stroke-width="2"/>
    <path d="M200 320 Q250 280 300 300 Q350 320 400 280 Q450 240 500 270" fill="none" stroke="#D4A843" stroke-width="1.5"/>
  </g>
  <g transform="translate(320,140)">
    <text x="0" y="0" text-anchor="middle" fill="#D4A843" font-size="42" font-weight="bold" font-family="serif">三滴血</text>
    <line x1="-70" y1="15" x2="70" y2="15" stroke="#D4A843" stroke-width="1.5"/>
    <text x="0" y="45" text-anchor="middle" fill="#F5F0E8" font-size="16" font-family="serif" opacity="0.7">刘易平 · 经典选段</text>
  </g>
  <g transform="translate(60,300)" opacity="0.2">
    <circle cx="15" cy="15" r="12" fill="none" stroke="#D4A843" stroke-width="1.5"/>
    <polygon points="12,8 12,22 22,15" fill="#D4A843"/>
  </g>
  <rect x="20" y="20" width="50" height="24" rx="4" fill="#C41A1A" opacity="0.8"/>
  <text x="45" y="37" text-anchor="middle" fill="white" font-size="12" font-weight="bold" font-family="sans-serif">音频</text>
</svg>
