<svg xmlns="http://www.w3.org/2000/svg" width="640" height="360" viewBox="0 0 640 360">
  <defs>
    <linearGradient id="bg" x1="0" y1="0" x2="1" y2="1">
      <stop offset="0%" stop-color="#2D2D2D"/>
      <stop offset="100%" stop-color="#1A1A1A"/>
    </linearGradient>
  </defs>
  <rect width="640" height="360" fill="url(#bg)"/>
  <g opacity="0.15">
    <path d="M50 300 Q120 260 190 280 Q260 300 330 260 Q400 220 470 250 Q540 280 610 240" fill="none" stroke="#C41A1A" stroke-width="2"/>
  </g>
  <g transform="translate(320,130)">
    <text x="0" y="0" text-anchor="middle" fill="#C41A1A" font-size="38" font-weight="bold" font-family="serif">周仁回府</text>
    <line x1="-70" y1="15" x2="70" y2="15" stroke="#C41A1A" stroke-width="1.5"/>
    <text x="0" y="40" text-anchor="middle" fill="#F5F0E8" font-size="14" font-family="serif" opacity="0.7">夜奔选段</text>
  </g>
  <g transform="translate(300,220)" opacity="0.3">
    <rect x="0" y="0" width="40" height="28" rx="3" fill="none" stroke="#C41A1A" stroke-width="1.5"/>
    <polygon points="16,6 16,22 30,14" fill="#C41A1A"/>
  </g>
  <rect x="20" y="20" width="65" height="24" rx="4" fill="#C41A1A" opacity="0.8"/>
  <text x="52" y="37" text-anchor="middle" fill="white" font-size="11" font-weight="bold" font-family="sans-serif">视频</text>
  <rect x="560" y="20" width="60" height="24" rx="4" fill="#1A1A1A" opacity="0.6"/>
  <text x="590" y="37" text-anchor="middle" fill="white" font-size="10" font-family="sans-serif" opacity="0.8">Bilibili</text>
</svg>
